<?xml version="1.0" encoding="UTF-8" standalone="no"?>
<svg
   id="svg4306"
   width="22"
   height="22"
   version="1.1"
   style="enable-background:new"
   sodipodi:docname="shade.svg"
   inkscape:version="1.3.2 (091e20e, 2023-11-25)"
   xmlns:inkscape="http://www.inkscape.org/namespaces/inkscape"
   xmlns:sodipodi="http://sodipodi.sourceforge.net/DTD/sodipodi-0.dtd"
   xmlns="http://www.w3.org/2000/svg"
   xmlns:svg="http://www.w3.org/2000/svg"
   xmlns:rdf="http://www.w3.org/1999/02/22-rdf-syntax-ns#"
   xmlns:cc="http://creativecommons.org/ns#"
   xmlns:dc="http://purl.org/dc/elements/1.1/">
  <metadata
     id="metadata24">
    <rdf:RDF>
      <cc:Work
         rdf:about="">
        <dc:format>image/svg+xml</dc:format>
        <dc:type
           rdf:resource="http://purl.org/dc/dcmitype/StillImage" />
        <dc:title />
      </cc:Work>
    </rdf:RDF>
  </metadata>
  <defs
     id="defs22" />
  <style
     type="text/css"
     id="current-color-scheme">
      .ColorScheme-Text {
        color:#31363b;
      }
      .ColorScheme-Background {
        color:#eff0f1;
      }
      .ColorScheme-Highlight {
        color:#3daee9;
      }

      </style>
  <sodipodi:namedview
     pagecolor="#ffffff"
     bordercolor="#666666"
     borderopacity="1"
     objecttolerance="10"
     gridtolerance="10"
     guidetolerance="10"
     inkscape:pageopacity="1"
     inkscape:pageshadow="2"
     inkscape:window-width="1920"
     inkscape:window-height="1056"
     id="namedview20"
     showgrid="true"
     inkscape:zoom="8.962618"
     inkscape:cx="32.133468"
     inkscape:cy="1.7851927"
     inkscape:window-x="0"
     inkscape:window-y="0"
     inkscape:window-maximized="1"
     inkscape:current-layer="svg4306"
     showguides="true"
     inkscape:guide-bbox="true"
     inkscape:showpageshadow="2"
     inkscape:pagecheckerboard="0"
     inkscape:deskcolor="#d1d1d1" />
  <g
     id="active-center"
     inkscape:label="#g864"
     transform="translate(-22)">
    <path
       id="path860"
       d="M 11,0 C 4.9246922,0 0,4.9245318 0,11 0,17.075442 4.9246922,22 11,22 17.075542,22 22,17.075442 22,11 22,4.9245318 17.075542,0 11,0 Z"
       style="opacity:0;fill-opacity:0;fill-rule:evenodd;stroke:none;stroke-width:0.025636;enable-background:new"
       inkscape:connector-curvature="0"
       inkscape:label="path1" />
    <path
       id="path833-6"
       d="m 9.7890625,7 h 2.4218755 v 8 H 9.7890625 V 7.5 Z"
       style="fill:#ebebeb;fill-opacity:1;fill-rule:evenodd;stroke:none;stroke-width:0.02563604;enable-background:new"
       inkscape:connector-curvature="0"
       inkscape:label="path2" />
  </g>
  <g
     id="active-center-3"
     inkscape:label="#g837"
     transform="translate(-0.04296875,-0.04296875)"
     style="enable-background:new">
    <path
       id="path860-56"
       d="m 11.042969,0.04296875 c -6.075308,0 -11.00000025,4.92453185 -11.00000025,11.00000025 0,6.075442 4.92469225,11 11.00000025,11 6.075542,0 11,-4.924558 11,-11 0,-6.0754684 -4.924458,-11.00000025 -11,-11.00000025 z"
       style="opacity:0;fill-opacity:0;fill-rule:evenodd;stroke:none;stroke-width:0.025636;enable-background:new"
       inkscape:connector-curvature="0"
       inkscape:label="path1" />
    <path
       id="path833-6-29"
       d="M 9.8320311,7.0429689 H 12.253907 V 15.042969 H 9.8320311 V 7.5429689 Z"
       style="fill:#ffffff;fill-opacity:1;fill-rule:evenodd;stroke:none;stroke-width:0.025636;enable-background:new"
       inkscape:connector-curvature="0"
       inkscape:label="path2" />
  </g>
  <g
     style="enable-background:new;fill:#6e00ff;fill-opacity:1"
     id="pressed-center"
     transform="translate(22)">
    <path
       id="path896-5"
       class="ColorScheme-Highlight"
       d="M 11,0 C 4.9245575,0 0,4.9246922 0,11 0,17.075542 4.9245575,22 11,22 17.075469,22 22,17.075542 22,11 22,4.9246922 17.075469,0 11,0 Z"
       style="opacity:0;fill:#6e00ff;fill-opacity:1;fill-rule:evenodd;stroke:none;stroke-width:0.025636;enable-background:new"
       inkscape:connector-curvature="0"
       inkscape:label="path1" />
    <path
       id="path869-6-3"
       class="ColorScheme-Highlight"
       d="m 3,9.7890625 h 15 1 V 12.210938 H 3 Z"
       style="fill:#6e00ff;fill-opacity:1;fill-rule:evenodd;stroke:none;stroke-width:0.02563604;enable-background:new"
       inkscape:connector-curvature="0"
       inkscape:label="path2" />
  </g>
  <g
     style="fill:#B4B4B4;fill-opacity:1;enable-background:new"
     id="inactive-center"
     inkscape:label="#g864"
     transform="translate(44)">
    <path
       id="path860-5"
       d="M 11,0 C 4.9246922,0 0,4.9245318 0,11 0,17.075442 4.9246922,22 11,22 17.075542,22 22,17.075442 22,11 22,4.9245318 17.075542,0 11,0 Z"
       style="opacity:0;fill:#b4b4b4;fill-opacity:1;fill-rule:evenodd;stroke:none;stroke-width:0.025636;enable-background:new"
       inkscape:connector-curvature="0"
       inkscape:label="path1" />
    <path
       id="path833-6-3"
       d="m 9.7890625,7 h 2.4218755 v 8 H 9.7890625 V 7.5 Z"
       style="fill:#B4B4B4;fill-opacity:1;fill-rule:evenodd;stroke:none;stroke-width:0.02563604;enable-background:new"
       inkscape:connector-curvature="0"
       inkscape:label="path2" />
  </g>
  <g
     style="fill:#B4B4B4;fill-opacity:1;enable-background:new"
     id="deactivated-center"
     inkscape:label="#g864"
     transform="translate(66)">
    <path
       id="path860-6"
       d="M 11,0 C 4.9246922,0 0,4.9245318 0,11 0,17.075442 4.9246922,22 11,22 17.075542,22 22,17.075442 22,11 22,4.9245318 17.075542,0 11,0 Z"
       style="opacity:0;fill:#b4b4b4;fill-opacity:1;fill-rule:evenodd;stroke:none;stroke-width:0.025636;enable-background:new"
       inkscape:connector-curvature="0"
       inkscape:label="path1" />
    <path
       id="path833-6-2"
       d="m 9.7890625,7 h 2.4218755 v 8 H 9.7890625 V 7.5 Z"
       style="fill:#B4B4B4;fill-opacity:1;fill-rule:evenodd;stroke:none;stroke-width:0.02563604;enable-background:new"
       inkscape:connector-curvature="0"
       inkscape:label="path2" />
  </g>
</svg>
